<svg width="1440" height="1319" viewBox="0 0 1440 1319" fill="none" xmlns="http://www.w3.org/2000/svg">
<g opacity="0.07">
<path d="M84.0508 617.263V0" stroke="#D5D5D5"/>
<path d="M1453 102.877L13 102.877" stroke="#D5D5D5"/>
<path d="M1453 205.755L13 205.755" stroke="#D5D5D5"/>
<path d="M1453 308.632L13 308.632" stroke="#D5D5D5"/>
<path d="M1453 411.509L13 411.509" stroke="#D5D5D5"/>
<path d="M1453 514.386L13 514.386" stroke="#D5D5D5"/>
<path d="M1428 1318H-12" stroke="#D5D5D5"/>
<path d="M228.148 617.263V0" stroke="#D5D5D5"/>
<path d="M300.199 617.263V0" stroke="#D5D5D5"/>
<path d="M444.299 617.263V0" stroke="#D5D5D5"/>
<path d="M516.35 617.263V0" stroke="#D5D5D5"/>
<path d="M588.4 617.263V0" stroke="#D5D5D5"/>
<path d="M660.449 617.263V0" stroke="#D5D5D5"/>
<path d="M732.5 617.263V0" stroke="#D5D5D5"/>
<path d="M804.551 617.263V0" stroke="#D5D5D5"/>
<path d="M876.6 617.263V0" stroke="#D5D5D5"/>
<path d="M1020.7 617.263V0" stroke="#D5D5D5"/>
<path d="M1092.75 617.263V0" stroke="#D5D5D5"/>
<path d="M1164.8 617.263V0" stroke="#D5D5D5"/>
<path d="M1236.85 617.263V0" stroke="#D5D5D5"/>
<path d="M1380.95 617.263V0" stroke="#D5D5D5"/>
</g>
</svg>
